<svg fill="#000000" xmlns="http://www.w3.org/2000/svg" viewBox="0 0 24 24"><path d="M12 7c-2.76 0-5 2.24-5 5s2.24 5 5 5 5-2.24 5-5-2.24-5-5-5zM2 13h2c.55 0 1-.45 1-1s-.45-1-1-1H2c-.55 0-1 .45-1 1s.45 1 1 1zm18 0h2c.55 0 1-.45 1-1s-.45-1-1-1h-2c-.55 0-1 .45-1 1s.45 1 1 1zM11 2v2c0 .55.45 1 1 1s1-.45 1-1V2c0-.55-.45-1-1-1s-1 .45-1 1zm0 18v2c0 .55.45 1 1 1s1-.45 1-1v-2c0-.55-.45-1-1-1s-1 .45-1 1zM5.64 5.64c.39.39 1.02.39 1.41 0s.39-1.02 0-1.41L5.64 2.81c-.39-.39-1.02-.39-1.41 0s-.39 1.02 0 1.41L5.64 5.64zm12.73 12.73c.39.39 1.02.39 1.41 0s.39-1.02 0-1.41l-1.41-1.41c-.39-.39-1.02-.39-1.41 0s-.39 1.02 0 1.41l1.41 1.41zM2.81 18.36c.39.39 1.02.39 1.41 0l1.41-1.41c.39-.39.39-1.02 0-1.41s-1.02-.39-1.41 0L2.81 16.95c-.39.39-.39 1.02 0 1.41zm12.73-12.73c.39.39 1.02.39 1.41 0l1.41-1.41c.39-.39.39-1.02 0-1.41s-1.02-.39-1.41 0l-1.41 1.41c-.39.39-.39 1.02 0 1.41z"/></svg>
